<svg xmlns="http://www.w3.org/2000/svg" viewBox="0 0 64 64">
  <rect width="64" height="64" rx="12" fill="#0B0E14"/>
  <g transform="translate(7 10) scale(0.335)">
    <path d="M8 8 H86 V30 H58 V94 H36 V30 H8 Z" fill="#2E3192"/>
    <g transform="skewX(-7) translate(14 0)">
      <path d="M66 4 H138 V28 H90 V42 H130 V60 H90 V72 H138 V96 H66 Z" fill="#1A1D54" transform="translate(6 6)"/>
      <path d="M66 4 H138 V28 H90 V42 H130 V60 H90 V72 H138 V96 H66 Z" fill="#4FA3E8" stroke="#FFFFFF" stroke-width="4"/>
    </g>
    <path d="M10 104 C 48 114, 102 114, 140 103 L 130 111 C 96 119, 50 119, 18 110 Z" fill="#2E3192"/>
  </g>
</svg>
